<?xml version="1.0" encoding="utf-8"?>
<!-- Generator: Adobe Illustrator 19.2.1, SVG Export Plug-In . SVG Version: 6.00 Build 0)  -->
<svg version="1.1" id="Layer_1" xmlns="http://www.w3.org/2000/svg" xmlns:xlink="http://www.w3.org/1999/xlink" x="0px" y="0px"
	 viewBox="0 0 380 240" style="enable-background:new 0 0 380 240;" xml:space="preserve">
<style type="text/css">
	.st0{fill:#FFFFFF;}
	.st1{fill:none;stroke:#3DA4DC;stroke-miterlimit:10;}
	.st2{fill:#3DA4DC;}
	.st3{fill:none;stroke:#3DA4DC;stroke-width:1.2146;stroke-miterlimit:10;}
	.st4{fill:none;stroke:#223167;stroke-miterlimit:10;}
	.st5{fill:#3373BA;}
</style>
<g>
	<path class="st0" d="M372,60.5l-13.5-5.6l8.3,131.6c0,0-54.3-13.9-107.3-13.9c-48.2,0-62.2,21.2-62.2,21.2s-4.4,1.1-7.3,1.1
		c-2.9,0-7.3-1.1-7.3-1.1s-14-21.2-62.2-21.2c-53,0-107.3,13.9-107.3,13.9l8.3-131.6L8,60.5L0.8,199.6c0,0,70.4-16.2,119.7-16.2
		c30,0,49.3,9.5,49.3,9.5l1.2,6.8c0,0,8.1,3.8,19.1,3.8c11,0,19.1-3.8,19.1-3.8l1.2-6.8c0,0,19.3-9.5,49.3-9.5
		c49.3,0,119.7,16.2,119.7,16.2L372,60.5z"/>
</g>
<g>
	<path class="st0" d="M296.4,95.7l-3.1-0.6c-0.1,6.2-0.2,12.5-0.3,18.8l3.1,0.6c2.4,0.6,4.6,0.9,6.5,1c4.5,0.1,7.1-1.7,7.2-6.4
		l0-0.1C309.8,102.5,304.7,97.7,296.4,95.7z"/>
	<path class="st0" d="M230.4,95c-0.9,0-2,0.1-3.2,0.4c-2.7,0.6-5.2,1.3-7.9,2.1c-0.1,3-0.1,5.9-0.2,8.9c2.5-0.8,5.2-1.5,7.9-2.1
		c4.3-1.1,7.1-3.2,7.1-6l0-0.1C234.2,96.1,232.8,95,230.4,95z"/>
	<path class="st0" d="M161.3,99.9c-1.2-0.3-2.3-0.5-3.4-0.5c-5,0-8,3.5-7.9,7.8l0,0.2c0.1,5.3,4.6,10.8,11.7,12.7
		c1.4,0.4,2.6,0.5,3.8,0.5c4.6,0,7.2-2.9,7.2-7.1l0-0.1C172.5,108.2,168.2,101.8,161.3,99.9z"/>
	<path class="st0" d="M95.9,50.8c-1,2.5-2.1,5-3.2,7.6c2.3-0.3,4.5-0.5,6.8-0.7C98.2,55.4,97,53.1,95.9,50.8z"/>
	<path class="st0" d="M348.2,20.7c0,0-42.9-20-92.3-20c-42,0-65.9,17.2-65.9,17.2S166.1,0.8,124.1,0.8c-49.4,0-92.3,20-92.3,20
		l-7.9,153.4c0,0,44.5-12.2,96.6-12.2s69.5,24.6,69.5,24.6s17.4-24.6,69.5-24.6c52.1,0,96.6,12.2,96.6,12.2L348.2,20.7z M185.1,54.4
		c0,2.8,0.1,5.6,0.1,8.4c-3.2-1.6-6.6-3.1-10.1-4.4c0.1,7.1,0.2,14.1,0.3,21.1c-3.8-1.5-7.7-2.9-11.7-4.1c-0.1-7.1-0.2-14-0.3-21.1
		c-3.5-1.1-7-2-10.6-2.9c0-2.8-0.1-5.6-0.1-8.4C163.9,45.7,174.8,49.5,185.1,54.4z M89.7,40c4.1-0.6,8.1-1,12.3-1.3
		c5.3,9.6,10.7,19.4,16.1,29.4c-1.8-0.1-3.5-0.1-5.2-0.1c-2.8,0-5.6,0.1-8.3,0.2c-0.7-1.3-1.3-2.5-2-3.9c-4.4,0.3-8.7,0.7-13,1.4
		c-0.7,1.4-1.2,2.7-1.9,4.2c-4.4,0.7-8.7,1.5-12.9,2.6C79.7,61.4,84.7,50.6,89.7,40z M69.5,44.3c0,2.7,0.1,5.6,0.1,8.4
		c-6.1,1.6-11.9,3.5-17.7,5.8c0,1.2,0,2.5,0.1,3.8c5.4-2.1,10.9-4,16.4-5.5c0,2.6,0.1,5.2,0.1,7.7c-5.5,1.5-11,3.4-16.4,5.4
		c0,3.2,0.1,6.4,0.1,9.7c-3.8,1.4-7.5,3.1-11.2,5c-0.1-9.8-0.3-19.7-0.4-29.5C49.7,50.5,59.4,47,69.5,44.3z M108.8,126.8
		c-5.4,0.2-10.9,0.7-16.3,1.4c-3.3-7-6.7-13.7-10-20.5c-3.1,7.9-6.2,16-9.3,24.3c-5.3,1.3-10.4,2.9-15.6,4.7
		c-5.9-12.9-11.7-25.5-17.3-37.7c5.8-2.9,11.8-5.3,17.9-7.5c2.6,6.2,5.1,12.6,7.7,18.9c2.9-8,5.6-16,8.5-23.8
		c5.2-1.2,10.5-2.3,15.8-3.1c3.1,6.8,6.2,13.5,9.4,20.5c2.5-7.4,5.1-14.7,7.6-21.9c2.8-0.1,5.6-0.2,8.4-0.2c3.6,0,7.3,0.1,10.9,0.3
		C120.7,96.7,114.8,111.6,108.8,126.8z M128.6,39.2c4.1,0.4,8.3,0.9,12.3,1.5c0.1,9.8,0.3,19.6,0.4,29.5c-4-0.7-8.2-1.2-12.3-1.5
		C128.8,58.8,128.7,49,128.6,39.2z M173.7,134.9c-3.6,0-7.6-0.6-12-1.7c-16.8-4.4-30.3-15.3-30.5-28.3l0-0.1
		c-0.1-10.7,9-19,21.6-19.1c2.6,0,5.4,0.3,8.3,1.1c16.8,4.4,28.8,20.7,29,33.6l0,0.1C190.3,130.1,183.8,134.9,173.7,134.9z
		 M200.3,77.1c-3.8,1.5-7.6,3.1-11.3,4.9c0.2-9.9,0.3-19.9,0.5-29.8c3.7-1.7,7.5-3.4,11.3-4.9c-0.1,3.5-0.1,7-0.2,10.6
		c3.6-1.4,7.2-2.5,10.8-3.6c0.1-3.5,0.1-7,0.2-10.6c3.9-1.2,8-2.2,12-3.1c-0.2,9.9-0.3,19.9-0.5,29.8c-4,0.9-8.1,2-12,3.1
		c0.1-3.5,0.1-7.1,0.2-10.7c-3.6,1.1-7.2,2.3-10.8,3.6C200.4,70.1,200.3,73.6,200.3,77.1z M233,126.4c-3.4-3.6-6.8-7.1-10.2-10.4
		c-1.3,0.4-2.5,0.7-3.8,1.1c-0.1,4.3-0.1,8.6-0.2,12.9c-5.9,1.9-11.8,4.1-17.4,6.7c0.3-15,0.5-30,0.8-45c8.2-3.9,16.8-6.9,25.7-9.1
		c3.7-0.9,6.8-1.2,9.6-1.2c4.5,0.1,7.9,1.2,10.3,2.9c3.3,2.4,5.1,5.6,5,10.3l0,0.1c-0.1,6.6-4.5,11.4-11.3,14.9
		c4.2,4.6,8.5,9.2,12.7,14.1C247,124.2,239.9,125,233,126.4z M262.3,44.8c-6.3,0-12.5,0.4-18.7,0.9c0,1.3,0,2.6-0.1,3.8
		c5.8-0.6,11.6-0.8,17.4-0.9c0,2.6-0.1,5.1-0.1,7.8c-5.7,0-11.6,0.3-17.4,0.9c-0.1,3.2-0.1,6.5-0.2,9.7c-4.1,0.4-8.3,1-12.3,1.7
		c0.2-9.9,0.3-19.8,0.5-29.8c10.3-1.7,20.6-2.7,31.1-2.6C262.4,39.2,262.3,42,262.3,44.8z M268.5,52.9c0.1-5.4,0.2-11,0.3-16.4
		c4.2,0.2,8.5,0.4,12.6,0.9c-0.1,5.4-0.2,11-0.3,16.4c-0.1,3.7,2.3,5.5,5.6,6c0.4,0.1,0.8,0.1,1.2,0.1c2.7,0,4.5-1.1,4.6-4.3
		c0.1-5.5,0.2-11,0.3-16.6c4.1,0.7,8.2,1.7,12.4,2.7c-0.1,5.4-0.2,10.8-0.3,16.2c-0.1,8.4-5.1,11.2-13.1,11.1
		c-1.7,0-3.5-0.2-5.4-0.5C275.5,67,268.3,62.9,268.5,52.9z M327.1,116.1c-0.2,9.6-5.2,13.9-15.9,13.7c-4.4-0.1-9.9-0.9-16.4-2.5
		c-6.8-1.6-13.6-2.7-20.6-3.3c0.3-15,0.5-29.9,0.8-45c7.2,0.6,14.3,1.8,21.3,3.4C317.9,87.9,327.3,103,327.1,116.1L327.1,116.1z
		 M339.6,84.6c-8.8-4.5-18-8.2-27.6-11.1c0.2-10,0.3-19.9,0.5-29.8c4,1.2,7.9,2.5,11.8,4c-0.1,7-0.2,14.2-0.4,21.2
		c5.5,2.1,10.7,4.5,15.8,7.1C339.7,78.9,339.7,81.7,339.6,84.6z"/>
</g>
<g>
	<path class="st0" d="M2.6,215.6h13c3.2,0,5.2,0.7,6.6,2.1c0.8,0.8,1.4,2,1.4,3.6v0.1c0,2.7-1.7,4.4-4.1,5.3c3,0.9,4.9,2.4,4.9,5.6
		v0.1c0,3.7-3,6.4-8.9,6.4H2.6V215.6z M13.5,224.7c1.7,0,2.4-0.6,2.4-1.6V223c0-1-0.8-1.6-2.5-1.6h-3.3v3.2H13.5z M14,232.9
		c1.7,0,2.5-0.7,2.5-1.7v-0.1c0-1-0.8-1.7-2.5-1.7h-3.9v3.4H14z"/>
	<path class="st0" d="M39.8,215.4h7.7l9.8,23.3h-8.4l-1.2-3.1h-8.1l-1.2,3.1H30L39.8,215.4z M45.7,230.1l-2.1-5.6l-2.1,5.6H45.7z"/>
	<path class="st0" d="M63.9,215.6h10.4c6.2,0,10.4,2.7,10.4,8.2v0.1c0,5.6-4.3,8.6-10.5,8.6h-2.5v6.3h-7.7V215.6z M73.7,226.9
		c2,0,3.3-0.9,3.3-2.5v-0.1c0-1.7-1.2-2.5-3.3-2.5h-2.1v5.2H73.7z"/>
	<path class="st0" d="M97.9,222.1h-6.8v-6.6h21.4v6.6h-6.8v16.6h-7.7V222.1z"/>
	<path class="st0" d="M120,215.6h7.7v23.2H120V215.6z"/>
	<path class="st0" d="M134.6,235l4-4.8c2.4,1.9,5.2,2.6,7.8,2.6c1.3,0,1.9-0.4,1.9-1v-0.1c0-0.6-0.7-1-3.1-1.5c-5-1-9.4-2.5-9.4-7.2
		v-0.1c0-4.2,3.3-7.5,9.5-7.5c4.3,0,7.5,1,10.1,3.1l-3.6,5c-2.1-1.5-4.6-2.2-6.7-2.2c-1.1,0-1.6,0.4-1.6,0.9v0.1c0,0.6,0.6,1,3,1.4
		c5.7,1.1,9.5,2.7,9.5,7.2v0.1c0,4.7-3.9,7.6-9.9,7.6C141.5,238.8,137.5,237.5,134.6,235z"/>
	<path class="st0" d="M168.9,222.1h-6.8v-6.6h21.4v6.6h-6.8v16.6h-7.7V222.1z"/>
	<path class="st0" d="M204.9,227.2L204.9,227.2c0-6.7,5.2-11.6,11.8-11.6c4.9,0,8.2,2.4,10.1,5.8l-6.1,3.6c-0.8-1.6-2-2.7-4-2.7
		c-2.5,0-4.2,2.2-4.2,4.9v0.1c0,2.9,1.7,4.9,4.2,4.9c2.1,0,3.3-1.1,4.2-2.8l6.1,3.5c-1.9,3.3-5,6-10.5,6
		C210.3,238.8,204.9,234.1,204.9,227.2z"/>
	<path class="st0" d="M234.6,215.6h7.7v8.2h7.1v-8.2h7.7v23.2h-7.7v-8.3h-7.1v8.3h-7.7V215.6z"/>
	<path class="st0" d="M265.6,228.1v-12.5h7.7V228c0,2.8,1.5,4,3.5,4c2,0,3.5-1.1,3.5-3.9v-12.6h7.7v12.4c0,7.8-4.5,10.8-11.3,10.8
		C269.9,238.8,265.6,235.6,265.6,228.1z"/>
	<path class="st0" d="M296.4,215.6h11.3c4.1,0,6.7,1,8.3,2.7c1.4,1.4,2.1,3.1,2.1,5.5v0.1c0,3.4-1.8,5.7-4.6,7.1l5.4,7.9h-8.8
		l-4.4-6.6h-1.7v6.6h-7.7V215.6z M307.5,226.6c1.9,0,3-0.8,3-2.2v-0.1c0-1.5-1.2-2.2-2.9-2.2h-3.4v4.5H307.5z"/>
	<path class="st0" d="M325.7,227.2L325.7,227.2c0-6.7,5.2-11.6,11.8-11.6c4.9,0,8.2,2.4,10.1,5.8l-6.1,3.6c-0.8-1.6-2-2.7-4-2.7
		c-2.5,0-4.2,2.2-4.2,4.9v0.1c0,2.9,1.7,4.9,4.2,4.9c2.1,0,3.3-1.1,4.2-2.8l6.1,3.5c-1.9,3.3-5,6-10.5,6
		C331,238.8,325.7,234.1,325.7,227.2z"/>
	<path class="st0" d="M355.3,215.6h7.7v8.2h7.1v-8.2h7.7v23.2h-7.7v-8.3h-7.1v8.3h-7.7V215.6z"/>
</g>
</svg>
