<?xml version="1.0" encoding="utf-8"?>
<!-- Generator: Adobe Illustrator 19.2.1, SVG Export Plug-In . SVG Version: 6.00 Build 0)  -->
<svg version="1.1" id="Layer_1" xmlns="http://www.w3.org/2000/svg" xmlns:xlink="http://www.w3.org/1999/xlink" x="0px" y="0px"
	 viewBox="0 0 27 15" style="enable-background:new 0 0 27 15;" xml:space="preserve">
<style type="text/css">
	.st0{fill:#FFCD33;}
	.st1{fill:#985424;}
</style>
<g>
	<g>
		<polygon class="st0" points="27,7.5 24.4,9.5 27,12.4 24.4,12.4 24.4,15 21.6,12.4 19.5,15 17.5,12.4 15.5,15 13.5,12.4 11.5,15 
			9.5,12.4 7.4,15 5.4,12.4 2.6,15 2.6,12.4 0,12.4 2.6,9.5 0,7.5 2.6,5.5 0,2.6 2.6,2.6 2.6,0 5.4,2.6 7.4,0 9.5,2.6 11.5,0 
			13.5,2.6 15.5,0 17.5,2.6 19.5,0 21.6,2.6 24.4,0 24.4,2.6 27,2.6 24.4,5.5 		"/>
	</g>
	<path class="st1" d="M5.6,10.2V4.8h0.9l1.8,3.5V4.8h0.8v5.3H8.3L6.5,6.7v3.5H5.6z"/>
	<polygon class="st1" points="13.6,9.3 13.6,10.1 10.2,10.1 10.2,4.9 13.5,4.9 13.5,5.7 11.1,5.7 11.1,7.1 13.3,7.1 13.3,7.9 
		11.1,7.9 11.1,9.3 	"/>
	<path class="st1" d="M15,10.2l-1.1-5.3h0.9l0.7,3.6l0.8-3.6h1.1l0.8,3.7L19,4.8h0.9l-1.1,5.3h-1l-0.9-4l-0.9,4H15z"/>
	<path class="st1" d="M20.4,8.1l0-3.3h0.9v3.3H20.4z M20.4,10.2v-1h1v1H20.4z"/>
</g>
</svg>
