<?xml version="1.0" encoding="utf-8"?>
<!-- Generator: Adobe Illustrator 19.2.1, SVG Export Plug-In . SVG Version: 6.00 Build 0)  -->
<svg version="1.1" id="YouTube_Icon" xmlns="http://www.w3.org/2000/svg" xmlns:xlink="http://www.w3.org/1999/xlink" x="0px"
	 y="0px" viewBox="0 0 145 145" style="enable-background:new 0 0 145 145;" xml:space="preserve">
<style type="text/css">
	.st0{fill:#CB2027;}
	.st1{opacity:0.12;fill:#420000;enable-background:new    ;}
	.st2{fill:#FFFFFF;}
</style>
<path class="st0" d="M137,145H8c-4.4,0-8-3.6-8-8V8c0-4.4,3.6-8,8-8h129c4.4,0,8,3.6,8,8v129C145,141.4,141.4,145,137,145z"/>
<path id="Triangle" class="st0" d="M63.7,83.6l23.2-12L63.7,59.5V83.6z"/>
<path id="The_Sharpness" class="st1" d="M61.6,56.4l25.2,16.8l3.6-1.9L61.6,56.4z"/>
<path class="st2" d="M124.5,51.3c0,0-1-7.3-4.2-10.6c-4-4.2-8.5-4.3-10.7-4.5c-14.8-1.1-37.1-1.1-37.1-1.1h-0.1c0,0-22.3,0-37.1,1.1
	c-2.1,0.3-6.6,0.3-10.7,4.5c-3.2,3.2-4.2,10.6-4.2,10.6s-1,8.6-1,17.1v8c0,8.6,1.1,17.2,1.1,17.2s1,7.3,4.2,10.6
	c4,4.2,9.3,4.1,11.7,4.5c8.5,0.8,36.1,1.1,36.1,1.1s22.3-0.1,37.2-1.1c2.1-0.3,6.6-0.3,10.7-4.5c3.2-3.2,4.2-10.6,4.2-10.6
	s1.1-8.6,1.1-17.2v-8C125.6,59.9,124.5,51.3,124.5,51.3z M61.6,86.2V56.4l28.7,15L61.6,86.2z"/>
</svg>
