<?xml version="1.0" standalone="no"?>
<!DOCTYPE svg PUBLIC "-//W3C//DTD SVG 20010904//EN"
 "http://www.w3.org/TR/2001/REC-SVG-20010904/DTD/svg10.dtd">
<svg version="1.0" xmlns="http://www.w3.org/2000/svg"
 width="16.000000pt" height="16.000000pt" viewBox="0 0 16.000000 16.000000"
 preserveAspectRatio="xMidYMid meet">
<metadata>
Created by potrace 1.11, written by Peter Selinger 2001-2013
</metadata>
<g transform="translate(0.000000,16.000000) scale(0.006154,-0.006154)"
fill="#000000" stroke="none">
<path d="M729 2136 c-2 -2 -29 -6 -59 -10 -30 -3 -73 -9 -95 -12 -56 -8 -260
-68 -317 -93 -47 -20 -48 -21 -49 -68 -1 -26 -2 -66 -4 -88 -3 -51 -14 -252
-20 -375 -3 -52 -7 -135 -10 -185 -2 -49 -7 -150 -11 -224 l-6 -134 33 7 c19
3 45 9 59 12 25 5 35 7 125 24 215 40 537 48 660 16 91 -24 182 -68 228 -110
l37 -34 36 33 c47 44 144 90 230 112 99 24 411 23 564 -2 97 -16 211 -37 245
-45 71 -17 68 -26 60 138 -4 81 -8 172 -10 202 -2 30 -6 118 -10 195 -3 77 -8
167 -10 200 -2 33 -7 114 -10 180 -5 89 -10 123 -22 132 -21 17 -218 79 -308
98 -117 24 -179 30 -305 30 -174 0 -260 -17 -392 -77 l-68 -31 -68 31 c-113
53 -210 73 -363 77 -75 2 -138 3 -140 1z m1067 -268 c-3 -13 -5 -26 -5 -29 -1
-3 -13 -6 -28 -6 -79 -1 -93 -4 -93 -18 0 -11 12 -13 54 -10 43 3 56 0 61 -12
8 -23 -9 -36 -47 -39 -18 -1 -43 -2 -55 -3 -18 -1 -21 -7 -20 -33 2 -31 0 -33
-40 -38 l-41 -6 3 90 c1 50 3 96 4 103 1 12 28 16 144 21 65 3 67 2 63 -20z
m120 14 c6 -4 10 -33 9 -66 -1 -62 11 -86 44 -86 29 0 39 21 39 78 -1 29 2 55
5 58 3 3 21 2 41 -2 l37 -6 -2 -70 c-3 -100 -19 -118 -102 -114 -114 6 -141
32 -144 138 l-3 78 33 0 c17 0 37 -4 43 -8z m-1208 -32 c7 -14 31 -58 53 -97
35 -63 38 -73 22 -74 -10 -1 -25 -2 -33 -3 -8 -1 -25 4 -37 11 -32 19 -83 16
-107 -6 -12 -10 -38 -22 -59 -25 l-38 -7 24 48 c13 26 36 76 52 110 25 54 32
62 59 65 47 6 49 5 64 -22z m250 1 c5 -12 6 -126 3 -176 -1 -6 -18 -9 -40 -7
l-39 4 -1 99 -2 100 37 -3 c21 -1 39 -8 42 -17z m570 -87 c-3 -102 -4 -104
-59 -117 -25 -6 -26 -5 -22 28 4 38 1 40 -46 24 -27 -10 -31 -15 -31 -49 0
-34 -4 -39 -31 -49 -18 -6 -35 -11 -38 -11 -4 0 -6 33 -5 73 3 130 1 124 35
136 18 6 34 11 35 11 2 0 4 -15 4 -34 l0 -34 39 15 c35 14 40 20 43 51 2 29 8
38 28 43 51 14 51 15 48 -87z m-1058 48 c0 -26 -5 -30 -55 -46 -53 -16 -73
-31 -61 -44 6 -5 28 1 94 25 7 3 12 -4 12 -20 0 -23 -7 -28 -55 -43 -53 -17
-55 -19 -55 -54 0 -31 -4 -37 -32 -48 -17 -6 -34 -9 -37 -7 -2 3 -5 46 -6 96
l-1 91 40 19 c31 14 125 50 154 58 1 1 2 -12 2 -27z m712 -9 c68 -25 100 -55
80 -75 -6 -6 -17 -6 -32 2 -12 6 -24 9 -27 6 -3 -3 -6 -33 -5 -66 0 -33 -3
-62 -7 -64 -3 -2 -21 2 -38 9 -31 13 -32 15 -35 86 l-3 71 -34 12 c-25 8 -35
17 -36 34 -2 22 1 23 33 17 19 -3 66 -18 104 -32z m1038 -60 l0 -74 55 -25
c46 -21 55 -30 55 -51 0 -16 -4 -23 -12 -20 -52 20 -146 56 -160 61 -15 4 -17
19 -16 104 l0 99 39 -10 39 -9 0 -75z m-245 -159 c83 -11 150 -41 197 -89 69
-69 88 -160 44 -211 -19 -23 -32 -28 -72 -29 -27 -1 -78 5 -114 12 -95 20
-103 21 -128 22 l-22 1 4 153 c2 83 4 153 5 155 1 2 9 1 19 -2 9 -3 40 -8 67
-12z m-1139 -66 c-13 -35 -39 -101 -56 -148 -18 -47 -35 -88 -39 -92 -3 -3
-29 -8 -57 -10 l-52 -4 -33 67 c-18 38 -35 66 -39 64 -4 -2 -15 -26 -24 -52
-10 -26 -22 -60 -28 -75 -7 -19 -23 -31 -56 -42 -25 -9 -49 -16 -54 -16 -9 0
-105 198 -114 236 -5 18 3 24 51 44 30 12 57 21 59 19 1 -2 13 -30 26 -62 12
-32 25 -55 29 -52 3 3 17 38 31 78 26 71 26 71 75 83 27 7 52 11 56 9 4 -3 19
-34 34 -70 16 -36 31 -62 35 -58 4 4 18 38 30 76 l24 67 63 0 63 0 -24 -62z
m847 51 c14 -6 30 -22 36 -36 20 -45 13 -74 -28 -113 l-39 -37 41 -41 c23 -23
39 -43 37 -45 -3 -3 -34 -8 -69 -11 -64 -7 -64 -7 -103 31 -45 43 -62 36 -60
-25 2 -37 1 -39 -50 -58 -29 -10 -56 -21 -61 -23 -8 -3 -7 257 1 291 3 12 33
27 96 47 96 32 159 38 199 20z m-543 -40 c60 -27 107 -74 136 -134 51 -107 14
-175 -93 -175 -99 0 -231 69 -268 141 -67 128 77 235 225 168z"/>
<path d="M643 1773 c-3 -10 -8 -21 -10 -25 -2 -5 5 -8 16 -8 14 0 21 6 21 19
0 27 -19 36 -27 14z"/>
<path d="M2009 1473 c-6 -112 -6 -113 27 -119 52 -10 78 -2 85 26 8 35 -14 75
-55 94 -44 21 -56 20 -57 -1z"/>
<path d="M1523 1483 c-19 -4 -23 -11 -23 -40 0 -28 3 -34 16 -29 9 3 21 6 28
6 23 0 65 40 59 55 -5 15 -33 17 -80 8z"/>
<path d="M1034 1434 c-16 -24 -16 -28 0 -60 15 -33 63 -64 100 -64 42 0 61 70
29 107 -44 49 -103 57 -129 17z"/>
<path d="M93 1749 c-31 -14 -43 -26 -44 -42 -1 -12 -3 -35 -4 -52 -1 -16 -5
-86 -8 -155 -12 -218 -17 -323 -22 -405 -3 -44 -7 -135 -11 -203 l-5 -123 28
7 c15 3 44 10 63 14 19 5 51 11 70 14 19 3 44 7 55 10 11 2 40 7 65 11 25 4
54 9 65 11 11 2 40 7 65 10 25 3 53 8 63 10 10 2 53 6 95 10 42 3 86 8 97 10
27 5 242 5 281 -1 123 -17 212 -50 216 -79 4 -27 40 -44 106 -49 57 -5 139 9
160 25 6 6 12 19 12 28 0 21 87 54 186 71 57 9 233 12 304 5 19 -2 67 -7 105
-10 39 -4 97 -11 130 -16 33 -5 78 -12 100 -15 49 -7 281 -53 313 -61 l24 -7
-6 114 c-4 63 -9 159 -11 214 -3 55 -8 141 -10 190 -3 50 -8 140 -11 200 -3
61 -7 138 -8 173 -2 34 -6 65 -10 69 -3 3 -24 14 -47 25 l-41 18 7 -132 c4
-73 9 -149 10 -168 1 -19 5 -87 9 -150 4 -63 9 -135 11 -160 2 -25 7 -101 11
-169 l6 -124 -34 6 c-18 4 -55 11 -83 17 -27 6 -63 13 -80 16 -16 3 -43 7 -60
10 -16 3 -41 7 -55 9 -75 10 -129 17 -160 21 -93 14 -358 12 -435 -2 -89 -17
-185 -61 -231 -105 -44 -42 -103 -43 -147 -2 -18 16 -44 37 -58 46 -36 22
-143 57 -198 65 -92 13 -390 5 -506 -13 -16 -3 -43 -7 -60 -10 -16 -2 -48 -7
-70 -11 -70 -10 -226 -44 -237 -50 -9 -6 -5 187 7 291 2 17 7 89 11 160 3 72
8 146 9 165 9 121 17 290 14 289 -2 0 -23 -9 -46 -20z"/>
<path d="M37 662 c-27 -3 -27 -4 -27 -82 l0 -79 58 1 c31 1 64 5 73 9 22 11
30 46 14 59 -11 9 -11 17 -3 35 8 18 8 28 -1 39 -12 15 -66 23 -114 18z m63
-52 c0 -5 -9 -10 -21 -10 -11 0 -17 5 -14 10 3 6 13 10 21 10 8 0 14 -4 14
-10z m10 -49 c7 -2 -23 -21 -32 -21 -5 0 -8 6 -8 14 0 8 8 13 18 11 9 -2 19
-4 22 -4z"/>
<path d="M254 632 c-9 -20 -24 -56 -35 -79 -10 -24 -19 -44 -19 -46 0 -10 54
-4 66 7 14 15 54 11 65 -6 3 -5 18 -8 32 -6 l26 3 -31 75 c-37 90 -32 82 -64
86 -21 2 -28 -4 -40 -34z m46 -57 c0 -8 -4 -15 -10 -15 -5 0 -7 7 -4 15 4 8 8
15 10 15 2 0 4 -7 4 -15z"/>
<path d="M459 660 c-22 -5 -24 -11 -27 -81 l-3 -76 28 1 c21 1 29 7 31 22 2
16 10 22 29 22 26 0 63 32 63 56 0 42 -61 70 -121 56z m58 -57 c2 -6 -3 -13
-12 -16 -10 -5 -15 0 -15 14 0 21 21 22 27 2z"/>
<path d="M643 662 c-33 -5 -33 -50 -1 -48 21 1 23 -3 23 -54 0 -53 1 -55 28
-58 20 -3 27 1 28 15 1 10 2 36 3 58 1 33 5 40 21 40 27 0 35 45 8 46 -10 0
-34 1 -53 2 -19 1 -45 1 -57 -1z"/>
<path d="M831 661 c-7 -4 -12 -30 -12 -57 -1 -102 -1 -104 25 -104 29 0 33 16
28 102 -4 56 -16 74 -41 59z"/>
<path d="M1127 662 c-11 -2 -17 -13 -17 -28 0 -21 4 -24 20 -19 22 7 24 -1 20
-76 -1 -33 1 -36 29 -37 30 -1 30 0 33 56 2 47 6 57 20 54 15 -2 36 33 26 44
-6 5 -109 10 -131 6z"/>
<path d="M1607 661 c-2 -3 -3 -40 -3 -81 1 -74 1 -75 29 -78 24 -3 27 0 27 26
0 25 4 30 25 30 21 0 25 -5 25 -29 0 -25 4 -28 25 -27 14 1 25 7 26 13 1 15 1
118 0 131 -2 19 -29 24 -45 8 -8 -8 -13 -21 -10 -29 5 -11 -1 -15 -20 -15 -21
0 -26 5 -26 24 0 17 -7 25 -25 28 -14 3 -27 3 -28 -1z"/>
<path d="M1835 663 c-19 -3 -21 -10 -18 -58 1 -30 7 -64 13 -74 17 -34 97 -38
127 -8 8 8 16 39 18 71 2 45 0 58 -13 65 -28 14 -42 1 -42 -39 0 -47 -8 -70
-25 -70 -17 0 -25 23 -25 70 0 42 -5 48 -35 43z"/>
<path d="M2040 662 c-6 -2 -10 -39 -10 -83 0 -78 0 -79 25 -79 24 0 29 8 26
40 -1 9 7 5 21 -11 15 -17 33 -27 51 -27 31 1 33 6 13 33 -11 16 -11 21 0 33
30 29 7 91 -34 93 -9 0 -32 1 -50 2 -17 1 -37 1 -42 -1z m85 -62 c-3 -5 -15
-10 -26 -10 -10 0 -19 5 -19 10 0 6 12 10 26 10 14 0 23 -4 19 -10z"/>
<path d="M2450 661 c-11 -5 -15 -24 -15 -81 0 -75 0 -75 28 -76 23 -1 27 3 27
27 0 24 4 28 23 25 15 -2 23 -11 25 -29 3 -21 9 -27 28 -27 26 0 26 1 26 105
0 64 0 63 -27 57 -22 -4 -30 -18 -26 -44 0 -5 -10 -8 -24 -8 -20 0 -25 5 -25
24 0 26 -16 37 -40 27z"/>
<path d="M942 648 c-7 -7 -12 -24 -12 -38 0 -27 31 -50 68 -50 14 0 15 -2 3
-9 -9 -6 -22 -6 -34 1 -15 7 -23 6 -35 -6 -24 -24 -2 -39 59 -40 39 -1 54 3
65 18 18 25 18 41 -1 60 -13 12 -14 20 -4 37 9 17 8 23 -2 30 -21 13 -93 11
-107 -3z m83 -38 c7 -12 -2 -12 -30 0 -19 8 -19 9 2 9 12 1 25 -3 28 -9z"/>
<path d="M1420 633 c-17 -21 -20 -35 -15 -63 8 -45 23 -59 67 -65 26 -3 43 1
60 15 22 19 22 20 4 34 -14 11 -22 12 -36 4 -25 -16 -50 5 -43 33 5 17 12 20
37 16 38 -5 56 0 56 18 0 20 -32 35 -74 35 -26 0 -40 -7 -56 -27z"/>
<path d="M2251 634 c-42 -53 -16 -120 49 -130 27 -5 41 -1 60 15 24 20 24 21
6 36 -14 11 -24 12 -39 3 -16 -8 -23 -7 -34 8 -11 15 -10 20 3 35 13 15 20 16
35 6 15 -9 22 -8 36 6 17 17 17 19 -1 33 -33 24 -91 18 -115 -12z"/>
</g>
</svg>
